<svg width="24" height="24" viewBox="0 0 24 24" fill="none" xmlns="http://www.w3.org/2000/svg">
<path d="M9.80375 21.5675C10.4941 21.5675 11.0537 21.0079 11.0537 20.3175C11.0537 19.6272 10.4941 19.0676 9.80375 19.0676C9.11344 19.0676 8.55383 19.6272 8.55383 20.3175C8.55383 21.0079 9.11344 21.5675 9.80375 21.5675Z" fill="#4B4F54"/>
<path d="M20.1339 21.5675C20.8243 21.5675 21.3839 21.0079 21.3839 20.3175C21.3839 19.6272 20.8243 19.0676 20.1339 19.0676C19.4436 19.0676 18.884 19.6272 18.884 20.3175C18.884 21.0079 19.4436 21.5675 20.1339 21.5675Z" fill="#4B4F54"/>
<path d="M20.7773 17.2019L12.5518 17.0916C10.7136 17.0916 8.93987 15.4649 8.60901 13.5257L6.92714 4.12376C6.92714 4.10538 6.91795 4.08699 6.91795 4.06861C6.54114 2.3316 5.2177 2.44189 5.2177 2.44189C5.2177 2.44189 3.51744 2.4235 2.38701 2.44189C1.27495 2.46027 1.05438 3.10361 1.01761 3.33337C1.01761 3.36094 1.00842 3.46204 1.00842 3.68261C1.00842 4.08699 1.3209 4.44543 1.82638 4.41785L4.70303 4.29838C5.05227 4.23404 5.38313 4.45462 5.46584 4.80386L7.42343 13.8382V13.8749C8.01162 16.3472 9.90488 18.075 12.3679 18.075H19.3344C19.3344 18.075 19.6744 18.075 20.0421 18.075C20.4556 18.075 20.8233 18.0015 21.0163 17.735C21.1725 17.5144 21.0346 17.2111 20.7773 17.2019Z" fill="#C5003E"/>
<path d="M20.4097 7.35889H9.1605C8.98588 7.35889 8.84802 7.51513 8.8756 7.68975C8.8756 7.69894 8.88479 7.70813 8.88479 7.71732L8.89398 7.65298C8.89398 7.65298 8.91236 8.15846 10.2909 8.2228L20.0881 8.7099C20.9152 8.72828 21.4391 9.25214 21.3104 9.99658L20.6763 13.875C20.5752 14.408 20.1065 14.794 19.5642 14.7849L11.3479 14.5091C11.21 14.5091 11.0997 14.6378 11.1273 14.7757C11.2008 15.1617 11.5317 15.4558 11.9269 15.4741L19.8215 15.7866C20.9796 15.851 21.9905 15.033 22.1743 13.8934L22.928 10.2815C23.3323 7.98384 21.9721 7.35889 20.4097 7.35889Z" fill="#4B4F54"/>
</svg>
