<svg width="92" height="38" viewBox="0 0 92 38" fill="none" xmlns="http://www.w3.org/2000/svg">
<g clip-path="url(#clip0)">
<path d="M22.9367 4.40475C23.3316 2.6942 22.3846 1.01491 20.8213 0.653931C19.2581 0.292957 17.6706 1.387 17.2756 3.09755C16.8806 4.80809 17.8277 6.48739 19.391 6.84836C20.9542 7.20934 22.5417 6.1153 22.9367 4.40475Z" fill="#C5003E"/>
<path d="M44.9827 4.40384C45.3775 2.69329 44.4303 1.01412 42.8671 0.653305C41.3038 0.292491 39.7165 1.38667 39.3217 3.09721C38.9269 4.80776 39.8741 6.48692 41.4373 6.84774C43.0006 7.20855 44.5879 6.11438 44.9827 4.40384Z" fill="#C5003E"/>
<path d="M14.3176 24.6887C17.7762 29.6674 22.0867 32.3113 28.7928 32.3113C36.2311 32.3113 41.6319 28.9436 44.773 24.5528C46.7683 25.62 47.4308 26.8212 47.4308 28.1298C47.4308 31.8981 40.4254 38 29.8018 38C20.6321 38 14.3006 32.7729 12.5029 27.9519C11.8546 26.214 12.8352 24.7153 14.3176 24.6887Z" fill="#C5003E"/>
<path d="M91.1478 23.1662C91.1478 26.2961 88.329 29.082 84.9552 29.082C81.2332 29.082 79.1681 26.8308 79.1681 24.5772C79.1681 22.3236 80.8284 20.7512 82.8648 21.5146C82.3935 21.8581 82.2428 22.2895 82.2428 22.739C82.2428 23.3746 82.7297 24.1688 83.7562 24.1688C84.6081 24.1688 85.4099 23.4365 85.4099 22.1599C85.4099 20.2528 83.1451 18.346 81.7108 15.8885C81.4664 17.2114 80.9386 18.4333 80.1109 19.5867C78.2512 22.1777 75.5696 24.2485 72.813 24.2485C71.4729 24.2485 69.958 23.2235 69.958 21.3772C69.958 21.1712 69.9694 20.9588 69.9894 20.7422C68.3013 22.7816 66.1607 24.2488 64.073 24.2488C62.5308 24.2488 61.1363 23.2456 61.1363 21.3772C61.1363 19.0885 63.2845 14.6762 63.2845 11.5759C63.2845 10.972 63.1126 10.2844 62.7232 9.83976C63.3519 9.03016 64.0545 8.32388 65.503 8.32388C66.9072 8.32388 68.227 9.30295 68.227 10.8998C68.227 13.176 66.7365 16.5244 66.7365 18.4584C66.7365 19.0478 67.1201 19.3937 67.6717 19.3937C69.7287 19.3937 72.0657 14.5064 72.0657 11.5756C72.0657 10.9515 71.8672 10.2276 71.5177 9.69023C72.1463 8.88063 73.0133 8.30998 74.2975 8.30998C75.5373 8.30998 76.8858 9.28331 76.8858 10.7639C76.8858 13.1915 75.504 16.9513 75.504 18.456C75.504 18.9762 75.8119 19.3937 76.474 19.3937C78.2497 19.3937 80.5592 15.404 80.5592 12.0637C80.5592 12.0637 80.5604 12.0254 80.5613 12.0073C80.5909 9.29812 82.7164 7.70127 84.7797 7.70127C86.0131 7.70127 86.8149 8.23536 87.1297 8.81991C85.9334 8.81991 85.3407 9.9751 85.3407 11.2735C85.3395 15.494 91.1478 17.7977 91.1478 23.1662ZM18.6226 8.31058C17.3384 8.31058 16.4198 8.88999 15.7461 9.84429C16.1591 10.3657 16.3911 11.0472 16.3911 12.119C16.3911 14.2204 14.2834 19.6356 14.2834 21.3947C14.2834 23.1541 15.7984 24.2488 17.1385 24.2488C18.2934 24.2488 19.7289 23.5347 20.5578 22.2611C19.9857 21.65 19.6392 20.6126 19.6392 19.4791C19.6392 17.6893 21.2109 13.3253 21.2109 10.898C21.2109 9.41744 20.0029 8.31058 18.6226 8.31058ZM40.68 8.31058C39.3958 8.31058 38.4769 8.88999 37.8032 9.84429C38.2162 10.3657 38.4482 11.0472 38.4482 12.119C38.4482 14.2204 36.3408 19.6356 36.3408 21.3947C36.3408 23.1541 37.8558 24.2488 39.1959 24.2488C40.3507 24.2488 41.7863 23.5347 42.6152 22.2611C42.043 21.65 41.6966 20.6126 41.6966 19.4791C41.6966 17.6893 43.2683 13.3253 43.2683 10.898C43.268 9.41744 42.0603 8.31058 40.68 8.31058ZM60.5098 14.5838C60.5098 19.6456 56.3751 24.2488 51.1242 24.2488C47.5012 24.2488 44.1939 22.3022 44.1939 17.9756C44.1939 12.9138 48.3301 8.31058 53.5796 8.31058C57.1877 8.31089 60.5098 10.2576 60.5098 14.5838ZM55.2432 16.6277C55.6987 14.0442 54.8964 11.9048 53.3158 11.626C51.7356 11.3475 49.9203 13.3479 49.4648 15.9314C49.0132 18.4934 49.9487 20.6787 51.529 20.9573C53.1095 21.2361 54.7876 19.2112 55.2432 16.6277ZM31.3442 13.9515C31.7294 14.4747 32.375 14.8653 33.3537 14.8653C34.7684 14.8653 35.8487 13.5531 35.8487 11.5671C35.8487 9.9458 34.3751 8.31058 31.5681 8.31058C26.6183 8.31058 22.1371 13.0307 22.1371 18.1738C22.1371 21.8179 24.536 24.2491 28.443 24.2491C32.2269 24.2491 35.0053 21.8735 35.0053 19.5668C35.0053 18.9556 34.5364 18.5082 33.7468 18.4079C32.9063 19.7438 31.5279 20.4159 30.2461 20.4159C28.6578 20.4159 27.3349 18.9813 27.3349 17.041C27.3349 14.4639 29.332 11.626 31.0107 11.626C31.6596 11.626 31.9832 12.029 31.9832 12.641C31.9835 13.1525 31.8173 13.5588 31.3442 13.9515ZM11.4123 17.9614C10.7127 18.8294 8.69626 19.2601 5.5944 18.8813C7.80751 13.3485 9.28956 8.07798 9.28956 4.17739C9.28987 1.98603 8.18029 0.585846 6.17925 0.585846C4.99445 0.585846 3.71873 1.09698 2.84901 2.39325C3.42932 3.06238 3.62659 4.29068 3.62659 5.35554C3.62659 13.1208 0 18.5765 0 21.7687C0 23.0846 0.762777 23.7972 1.57872 24.2349C2.16236 23.7564 3.17587 23.419 3.8891 23.419C5.52734 23.419 8.04435 24.5117 10.71 24.4691C12.3881 24.4422 13.295 22.6916 13.2735 21.3515C13.2551 20.1966 12.5829 18.7717 11.4123 17.9614Z" fill="#4B4F54"/>
</g>
<defs>
<clipPath id="clip0">
<rect width="91.1478" height="38" fill="white"/>
</clipPath>
</defs>
</svg>
