<svg width="24" height="24" viewBox="0 0 24 24" fill="none" xmlns="http://www.w3.org/2000/svg">
<path d="M13.1304 21.2935C13.1304 21.1848 13.1304 21.1848 13.1304 21.2935C14.25 19.8695 15.2608 18.5543 16.2826 17.1304C17.2934 15.7065 18.3152 14.1848 19.0217 12.5652C19.9347 10.5326 19.9347 8.40217 19.0217 6.36956C17.7065 3.63043 14.9565 2 11.913 2C11.3043 2 10.7934 2.09783 10.1848 2.20652C6.83693 2.91304 4.29346 5.95652 4.29346 9.41303C4.29346 10.4239 4.49998 11.4456 5.10867 12.663C5.92389 14.4891 6.83693 15.913 7.9565 17.4348C8.96736 18.75 9.9891 20.0761 11 21.3913C11.0978 21.4891 11.0978 21.4891 11.2065 21.5978C11.413 21.8043 11.7174 22 12.0217 22C12.2282 22 12.5326 22 12.7282 21.6956C12.8261 21.5978 12.8261 21.5978 12.9348 21.4891C13.0326 21.3913 13.1304 21.3913 13.1304 21.2935C13.0326 21.2935 13.1304 21.2935 13.1304 21.2935ZM12.2174 20.6848C12.1195 20.7826 11.913 20.7826 11.8152 20.6848L9.47823 17.4348C9.17389 17.0326 8.96736 16.7282 8.66302 16.3152C7.74997 15.0978 6.93476 13.8804 6.32606 12.4565C5.81519 11.4456 5.61954 10.6304 5.61954 9.71738C5.61954 6.86956 7.74997 4.13043 10.5978 3.52174C10.6956 3.52174 10.6956 3.52174 10.8043 3.42391C15.8804 2.51087 19.9456 7.8913 17.6087 12.5652C17 13.7826 16.2934 14.9022 15.5761 15.913C15.3695 16.1195 15.2717 16.4239 15.0652 16.6195L12.2174 20.6848Z" fill="#4B4F54"/>
<path d="M12.0107 12.7609C13.5325 12.7609 14.7499 11.5435 14.7499 10.0218C14.7499 8.50004 13.5325 7.17395 12.0107 7.17395C10.489 7.17395 9.27161 8.39134 9.27161 9.91308C9.27161 11.4348 10.489 12.7609 12.0107 12.7609Z" fill="#C5003E"/>
</svg>
