<svg width="24" height="24" viewBox="0 0 24 24" fill="none" xmlns="http://www.w3.org/2000/svg">
<path d="M11.77 2.16003C9.43003 2.16003 7.53003 4.06003 7.53003 6.40003C7.53003 8.74003 9.43003 10.64 11.77 10.64C14.11 10.64 16.01 8.74003 16.01 6.40003C16.01 4.06003 14.12 2.16003 11.77 2.16003ZM11.91 9.37003C10.16 9.37003 8.75003 7.95003 8.75003 6.21003C8.75003 4.46003 10.17 3.05003 11.91 3.05003C13.65 3.05003 15.07 4.47003 15.07 6.21003C15.07 7.96003 13.65 9.37003 11.91 9.37003Z" fill="#C5003E"/>
<path d="M12.2601 12.61C18.5401 12.51 19.7101 17.28 20.0701 19.19C20.1401 19.58 20.2301 19.79 20.5601 19.79C20.7901 19.79 20.9701 19.54 20.9401 19.26C20.7601 17.44 19.5501 11.48 11.6901 11.48C4.83005 11.48 3.37005 16.62 3.06005 18.81C2.99005 19.32 3.31005 19.78 3.74005 19.78C4.49005 19.78 4.96005 20.32 4.85005 19.42C4.56005 16.89 6.14005 12.7 12.2601 12.61Z" fill="#4B4F54"/>
<path d="M3.26001 19.55C3.26001 19.55 5.07001 21.84 12.17 21.84C19.27 21.84 20.82 19.68 20.82 19.68L20.29 18.61C20.29 18.61 19.3 20.7 12.04 20.74C5.37001 20.77 4.29001 17.75 4.29001 17.75L3.26001 19.55Z" fill="#4B4F54"/>
</svg>
